<?xml version="1.0" standalone="no"?>
<!DOCTYPE svg PUBLIC "-//W3C//DTD SVG 20010904//EN"
 "http://www.w3.org/TR/2001/REC-SVG-20010904/DTD/svg10.dtd">
<svg version="1.0" xmlns="http://www.w3.org/2000/svg"
 width="458.000000pt" height="458.000000pt" viewBox="0 0 458.000000 458.000000"
 preserveAspectRatio="xMidYMid meet">
<metadata>
Created by potrace 1.11, written by Peter Selinger 2001-2013
</metadata>
<g transform="translate(0.000000,458.000000) scale(0.100000,-0.100000)"
fill="#000000" stroke="none">
<path d="M4185 4302 c-22 -20 -73 -66 -114 -102 -41 -36 -95 -83 -120 -106
-25 -23 -131 -117 -236 -209 -104 -92 -223 -197 -264 -234 l-74 -66 -699 -5
-698 -5 247 -253 248 -253 160 0 160 0 -25 -20 c-14 -12 -59 -51 -100 -88 -72
-65 -476 -423 -609 -540 -35 -31 -76 -67 -91 -81 -15 -14 -56 -50 -91 -80 -35
-30 -109 -95 -164 -145 -104 -93 -232 -206 -269 -238 -12 -10 -34 -31 -51 -46
-16 -15 -36 -30 -42 -34 -10 -7 -13 66 -13 352 l0 361 354 2 354 3 -55 60
c-31 33 -74 80 -97 105 -56 62 -233 256 -277 305 -21 22 -50 54 -65 71 -132
144 -198 216 -212 232 -9 11 -54 60 -100 110 -45 50 -99 109 -119 132 l-36 41
-21 -24 c-12 -13 -62 -69 -112 -123 -50 -54 -109 -118 -130 -142 -22 -24 -50
-56 -64 -71 -14 -14 -63 -69 -110 -120 -47 -52 -98 -109 -115 -126 -16 -18
-48 -52 -69 -76 -97 -107 -235 -258 -283 -309 -29 -30 -53 -58 -53 -62 0 -5
158 -8 350 -8 l350 0 0 -589 0 -589 -72 -65 c-40 -35 -138 -122 -218 -192 -80
-71 -176 -156 -215 -191 -38 -34 -79 -71 -91 -81 -31 -27 -164 -144 -192 -170
l-24 -22 108 -123 c60 -68 123 -139 140 -158 18 -19 42 -47 54 -63 12 -15 24
-27 28 -27 4 0 21 13 37 28 17 16 55 50 85 77 59 52 137 121 295 261 56 49
134 118 174 154 41 36 84 74 96 85 120 107 171 152 186 162 13 10 175 13 698
15 l681 3 -248 254 -247 253 -143 -1 c-78 -1 -142 1 -142 4 0 3 17 20 37 38
61 53 405 357 448 396 22 20 96 86 165 146 69 60 130 114 136 120 6 5 44 39
84 75 40 36 78 70 84 75 6 6 65 57 131 115 66 58 129 114 141 125 46 43 158
141 176 153 17 13 18 1 18 -337 l0 -351 -354 -2 -354 -3 51 -56 c29 -31 90
-98 137 -149 109 -119 90 -99 200 -220 52 -57 104 -114 115 -126 18 -19 74
-80 249 -274 33 -36 67 -72 75 -81 9 -9 43 -46 75 -82 l59 -67 21 23 c81 89
205 224 226 247 14 15 59 64 100 110 41 45 84 92 95 104 11 12 56 62 100 110
44 49 89 98 100 110 11 12 61 67 110 121 50 54 118 128 152 164 l61 66 -354 3
-354 2 0 579 0 579 168 148 c92 82 169 151 172 154 3 3 59 52 125 110 66 58
127 112 135 120 8 8 46 42 84 75 37 33 82 72 99 87 l31 27 -25 28 c-59 65
-111 123 -223 252 -44 50 -82 91 -85 91 -3 0 -24 -17 -46 -38z"/>
</g>
</svg>
